<svg xmlns="http://www.w3.org/2000/svg" width="43" height="42" viewBox="0 0 43 42"><g><g><path fill="#231f20" d="M23.366 0c.156.042.307.11.463.128.929.107 1.844.277 2.746.514 4.141 1.087 7.644 3.232 10.485 6.433 2.709 3.053 4.336 6.627 5.005 10.647.066.394.158.785.237 1.175v4.131c-.045.147-.105.291-.131.442-.109.627-.184 1.26-.318 1.881-.924 4.191-2.899 7.802-5.995 10.79a20.668 20.668 0 0 1-5.673 3.877 21.433 21.433 0 0 1-5.319 1.666c-.746.131-1.484.333-2.254.278-.162-.012-.324.006-.486 0-1.123-.055-2.253.113-3.373-.13-.893-.196-1.809-.294-2.691-.523-4.145-1.072-7.643-3.224-10.483-6.425C2.87 31.83 1.243 28.257.573 24.24c-.066-.394-.155-.785-.236-1.178v-4.128c.014-.026.033-.049.037-.075.059-.334.121-.668.172-1.004a20.947 20.947 0 0 1 2.08-6.45 20.97 20.97 0 0 1 5.828-7.028C11.335 2.134 14.598.778 18.194.2c.339-.055.674-.135 1.011-.2zm.302 17.038v-.525c.004-1.198-.013-2.393.019-3.588.021-.83.428-1.385 1.145-1.598a4.38 4.38 0 0 1 1.087-.166c.877-.029 1.756-.019 2.633-.025.133-.002.265 0 .405 0 .003-.039.008-.067.008-.094 0-1.527-.003-3.055.003-4.58 0-.129-.054-.145-.16-.145-.537-.004-1.075-.004-1.611-.019-1.241-.035-2.481-.067-3.719.072-.977.111-1.884.416-2.689.986-1.58 1.12-2.294 2.72-2.49 4.59-.048.461-.069.924-.084 1.39-.024.786-.033 1.573-.044 2.362-.006.445 0 .891 0 1.36h-4.459v5.246h4.494v13.132c0 .268-.027.24.247.24h4.95c.223 0 .223 0 .223-.23V22.26h4.499c.224-1.742.443-3.469.668-5.22z"/></g></g></svg>