<svg xmlns="http://www.w3.org/2000/svg" width="226" height="138" viewBox="0 0 226 138"><g><g><g><path fill="#fff" d="M86.618 24.2c-.921.64-1.89 1.214-2.824 1.839-1.142.762-2.252 1.576-3.402 2.325-1.164.758-2.41 1.4-3.525 2.22a6.236 6.236 0 0 0-1.63 1.832c-1.137 1.956-2.195 3.96-3.238 5.97-1.296 2.5-2.545 5.024-3.806 7.539-.059.117-.034.276-.048.415.145-.031.332-.016.427-.103.592-.533 1.276-1.01 1.717-1.651 1.251-1.817 2.4-3.698 4.323-4.93 1.11-.71 2.223-.852 2.943-.281.705.56 1.087 2.11.583 3.107-.484.958-1.166 1.818-1.788 2.703-.198.28-.33.383-.09.817.206.375-.146 1.062-.26 1.608-.056.259-.134.513-.202.769.243-.103.502-.18.726-.314 1.86-1.114 3.88-2.04 5.52-3.42 1.356-1.142 2.342-2.767 3.35-4.275 1.7-2.544 3.243-5.197 4.933-7.751 2-3.021 3.998-6.05 6.16-8.956 1.807-2.43 3.834-4.704 5.8-7.013a3.89 3.89 0 0 1 1.402-1.046c.438-.184 1.124-.277 1.459-.054.322.218.534.939.44 1.359a5.927 5.927 0 0 1-.938 2.09c-.74 1.05-1.612 2.009-2.428 3.005a33.443 33.443 0 0 0-.273-.186c.384-.604.773-1.205 1.154-1.811.51-.81 1.059-1.603 1.5-2.451.158-.305.055-.748.072-1.127-.398.066-.923-.01-1.172.219-1.093 1.003-2.253 1.984-3.124 3.17a716.056 716.056 0 0 0-10.054 14.056c-1.233 1.766-2.268 3.668-3.407 5.5-.584.942-1.204 1.862-1.792 2.802-.087.14-.085.337-.124.508.164-.048.346-.064.486-.15 1.893-1.168 3.93-2.154 5.276-4.04.055-.073.12-.173.197-.192.53-.133 1.354-.516 1.544-.314.544.58-.171 1.008-.58 1.285-3.325 2.245-4.884 5.869-7.088 8.987a1.77 1.77 0 0 0-.31.868c-.022.344-.019.88.18 1.002.268.168.745.082 1.107-.001 1.194-.276 1.906-1.26 2.798-1.98 2.17-1.751 4.325-3.521 6.516-5.245.218-.171.636-.087.961-.121-.145.263-.274.538-.439.79-.826 1.26-1.696 2.496-2.47 3.788-.17.28-.017.758-.012 1.145.378-.061.783-.051 1.127-.192 3.027-1.231 5.423-3.378 7.863-5.46.165-.14.295-.35.484-.43.357-.156.744-.243 1.12-.358-.18.337-.315.71-.549 1.006-.82 1.039-1.724 2.015-2.486 3.093-.207.293-.03.859-.03 1.299.4-.056.836-.025 1.193-.181 2.625-1.147 4.892-2.775 6.717-5.014.383-.47.928-.831 1.458-1.14.225-.132.603.003.912.017-.096.285-.11.66-.304.838-.707.649-1.522 1.184-2.202 1.857-.514.51-.912 1.147-1.303 1.765-.098.156-.052.552.077.663.128.11.463.053.676-.021.467-.16.91-.394 1.373-.564.185-.066.402-.044.604-.063-.086.25-.1.643-.27.728-.742.37-1.51.74-2.31.923-.29.065-.958-.347-1.01-.626-.203-1.06-.594-.703-1.168-.327a48.376 48.376 0 0 1-3.262 1.953c-.623.34-1.458.503-1.863-.155-.303-.491-.159-1.26-.198-1.906-.006-.113.067-.23.139-.458-1.49.995-2.868 1.963-4.296 2.848a7.961 7.961 0 0 1-2.035.883c-1.082.302-1.783-.377-1.542-1.484.156-.715.464-1.396.706-2.091-1.582 1.281-3.147 2.588-4.758 3.833-.68.525-1.414 1.045-2.206 1.347-1.566.599-2.714-.373-2.236-1.966.347-1.155 1.047-2.22 1.693-3.261.701-1.133 1.522-2.191 2.286-3.285.027-.038.004-.111.004-.411-.972.619-1.806 1.219-2.703 1.705-1.513.82-2.263 2.257-3.028 3.66-3.026 5.55-6.116 11.07-8.982 16.703-2.458 4.83-4.552 9.846-6.978 14.694-2.263 4.525-5.027 8.749-8.152 12.749-2.1 2.69-4.423 5.12-7.18 7.1-1.604 1.152-3.329 2.152-5.068 3.092-2.063 1.116-4.258 1.197-6.507.522-.256-.077-.774.138-.924.374-1.592 2.514-3.108 5.075-4.696 7.59-3.82 6.056-7.524 12.189-12.039 17.779-2.327 2.88-4.748 5.66-7.763 7.842a10.117 10.117 0 0 1-2.717 1.394c-1.823.6-3.482-.357-3.796-2.33-.335-2.101-.448-4.25-.519-6.381-.17-5.095.724-10.07 1.876-15.003.124-.53.474-1.152.304-1.554-.125-.297-.947-.261-1.429-.45-1.61-.625-2.753-1.768-3.468-3.327A37.112 37.112 0 0 1 .74 97.732a70.074 70.074 0 0 1 .128-19.667c.571-3.862 1.747-7.543 3.573-11.006 1.027-1.946 1.93-3.97 3.092-5.83 2.555-4.093 5.658-7.773 9.132-11.114 2.365-2.278 4.728-4.598 7.341-6.57a76.53 76.53 0 0 1 9.2-5.948c3.22-1.77 6.6-3.291 10.026-4.625 2.64-1.025 5.452-1.614 8.202-2.34.484-.128 1.058-.053 1.563.056 1.21.259 1.867 1.172 1.481 2.338-.457 1.372-1.072 2.709-1.772 3.975-1.758 3.175-3.605 6.3-5.407 9.45-.13.227-.18.499-.267.75.246-.1.534-.144.728-.303 1.953-1.615 3.872-3.272 5.836-4.873 2.421-1.973 4.832-3.96 7.33-5.83 1.332-.996 2.29-2.19 3.044-3.657 1.388-2.7 2.834-5.375 4.37-7.992 2.573-4.385 5.32-8.66 8.522-12.625 1.48-1.832 2.864-3.742 4.397-5.527.904-1.051 1.98-1.961 3.053-2.848.259-.216.789-.103 1.202-.132-.297.254-.62.488-.887.772-1.385 1.474-2.756 2.959-4.132 4.44l.01-.008c-1.011 1.249-2.096 2.446-3.02 3.756-2.441 3.47-4.98 6.89-7.167 10.518-2.387 3.959-4.426 8.126-6.61 12.207A92.4 92.4 0 0 0 62.27 37.9c-.065.133-.007.326-.005.489.136-.06.28-.104.407-.181 2.404-1.464 4.802-2.936 7.209-4.394 1.723-1.043 3.505-1.998 5.162-3.138.622-.426.997-1.24 1.427-1.914 2.814-4.413 5.489-8.922 8.455-13.23 2.242-3.26 4.758-6.346 7.326-9.362 1.977-2.321 4.334-4.198 7.315-5.257 3.276-1.163 5.615.27 5.744 3.747.093 2.55-.997 4.68-2.654 6.463-1.774 1.91-3.7 3.687-5.654 5.414-1.53 1.352-3.191 2.558-4.82 3.796a87.033 87.033 0 0 1-4.076 2.942c-.332.222-.842.18-1.272.256-.066.23-.064.56-.216.669zm6.349 21.489c-.025-.012-.048-.026-.072-.04l-.082.22.153-.18zM85.513 3.414l.014-.012.014.01-.028.002zm2.406 19.123c1.467-1.094 2.98-2.124 4.42-3.25 3.222-2.516 6.518-4.948 9.25-8.028 1.493-1.678 2.724-3.507 2.838-5.824.102-2.097-.365-3.562-1.853-3.97-1.48-.404-2.99-.082-4.303.692-4.182 2.462-7.105 6.25-10.056 9.946-2.02 2.53-3.762 5.294-5.52 8.023-1.809 2.805-3.489 5.696-5.214 8.555-.094.157-.081.38-.118.574.168-.07.351-.114.502-.21 2.582-1.651 5.157-3.314 7.745-4.956.376-.239.814-.377 1.223-.562.36-.331.696-.698 1.086-.99zm-55.313 87.087c1.373-2.12 2.71-4.266 4.136-6.352.709-1.033.92-1.81.118-3.025-1.664-2.515-1.277-5.372-.625-8.12 1.287-5.408 3.883-10.243 6.852-14.885 4.074-6.37 9.444-11.542 15.195-16.364 1.288-1.08 2.772-1.951 3.51-3.631.942-2.15 2.06-4.222 3.096-6.33.233-.472.442-.957.761-1.654-3.317 2.208-6.376 4.31-9.502 6.305-2.137 1.363-3.958 2.813-5.126 5.266-2.166 4.548-4.675 8.942-7.193 13.312-2.297 3.986-4.652 7.957-7.246 11.753-2.615 3.826-5.542 7.442-8.363 11.128-3.079 4.022-6.524 7.708-10.366 11.013-2.003 1.724-4.223 3.067-6.825 3.644-.755.167-1.143.538-1.3 1.24-.439 1.967-1.062 3.912-1.279 5.903a162.583 162.583 0 0 0-.854 11.586c-.059 1.58.362 3.19.632 4.774.161.942.858 1.432 1.766 1.234.855-.188 1.745-.494 2.464-.978 3.992-2.693 7.036-6.351 9.835-10.184 2.65-3.626 5.081-7.411 7.57-11.152.971-1.461 1.838-2.992 2.753-4.491zm20.215-65.818a104.19 104.19 0 0 1-5.421 4.366c-.322.243-.958.072-1.447.092.036-.458-.07-1 .134-1.363 1.698-3.03 3.485-6.01 5.18-9.041.828-1.484 1.6-3.011 2.242-4.581.5-1.223-.113-1.922-1.442-1.834a10.96 10.96 0 0 0-1.75.246c-5.831 1.353-11.401 3.426-16.567 6.448-3.096 1.81-6.164 3.728-8.989 5.925-2.826 2.194-5.414 4.716-7.965 7.237-4.202 4.16-7.889 8.724-10.52 14.084-1.673 3.407-3.233 6.85-3.98 10.59-1.324 6.625-1.458 13.288-.669 20 .46 3.913 1.303 7.697 2.858 11.319.741 1.727 1.771 3.12 3.761 3.533.688.142 1.001-.058 1.23-.727.91-2.672 1.803-5.352 2.837-7.977 3.36-8.538 7.68-16.52 13.653-23.556 2.841-3.347 5.9-6.463 9.333-9.182 3.353-2.654 6.798-5.193 10.237-7.736 1.694-1.253 3.5-2.356 5.19-3.613.72-.538 1.485-1.19 1.875-1.967 2.05-4.096 3.996-8.243 5.96-12.382 1.098-2.313 2.161-4.641 3.24-6.962-3.466 1.826-6.107 4.594-8.98 7.08zm23.64 5.572c.513-.28 1.003-.6 1.519-.872.16-.086.38-.057.573-.081 0 .15.044.317-.007.446-.337.854-2.13 1.636-3.005 1.428-.385-.092-.923-.051-1.24.158-3.453 2.299-6.905 4.604-10.293 6.999-.99.702-2.05 1.547-2.605 2.58-2.257 4.2-4.241 8.547-6.495 12.75-3.34 6.228-6.804 12.386-10.25 18.555-1.71 3.057-3.48 6.08-5.255 9.1-.37.63-.293.95.42 1.129 1.85.46 3.742.419 5.342-.538 2.597-1.555 5.278-3.116 7.487-5.15 5.044-4.643 8.77-10.346 11.927-16.4 1.73-3.318 3.273-6.733 4.915-10.097 1.314-2.694 2.585-5.413 3.987-8.06 2.347-4.432 4.787-8.814 7.179-13.222.37-.684.698-1.393 1.135-2.272a5593.038 5593.038 0 0 1-5.65 3.507c.094.014.236.083.317.04zm-25.624 9.797c-.109.049-.229.08-.324.147-1.871 1.318-3.752 2.626-5.61 3.964-4.5 3.243-9.098 6.372-12.976 10.378-2.346 2.422-4.682 4.875-6.795 7.497-3.477 4.313-6.398 9.028-8.647 14.083-2.113 4.754-3.876 9.664-5.781 14.509-.093.24-.057.53-.081.794.294.009.627.11.876.009 1.202-.49 2.56-.815 3.534-1.604 2.615-2.124 5.219-4.303 7.545-6.732 4.894-5.107 9.25-10.672 13.138-16.59 1.905-2.898 3.833-5.786 5.612-8.762 1.679-2.811 3.174-5.732 4.752-8.603 1.637-2.978 3.276-5.954 4.915-8.933a7.788 7.788 0 0 1-.158-.157zm8.875 1.746c-.146.098-.308.18-.436.298-2.652 2.425-5.375 4.778-7.93 7.302a53.23 53.23 0 0 0-8.482 10.909c-2.637 4.482-4.95 9.108-5.823 14.303-.35 2.077-.345 4.152.74 6.068.297.526.569.783 1 .01 1.978-3.54 4.016-7.047 6.018-10.574 2.31-4.07 4.67-8.112 6.892-12.228 2.308-4.278 4.477-8.63 6.7-12.952.514-.998 1.003-2.011 1.503-3.016l-.181-.12zm-5.664-4.962c3.28-2.172 6.558-4.35 9.84-6.518 1.396-.923 2.803-1.8 3.521-3.445.876-2.004 1.792-3.997 2.794-5.943 1.233-2.392 2.574-4.731 3.863-7.097.07-.13.09-.286.132-.43-.164.015-.357-.02-.49.053a94.141 94.141 0 0 0-2.891 1.666c-2.696 1.638-5.382 3.29-8.075 4.935-.183.11-.41.293-.58.26-.715-.14-.9.346-1.127.837a4595.157 4595.157 0 0 1-5.163 11.026c-.745 1.58-1.506 3.154-2.36 4.942.331-.175.44-.221.536-.286zM77.47 41.382c-.005-.123.03-.271-.024-.367-.204-.35-.438-.683-.66-1.021-.28.23-.6.428-.834.7-.46.537-.79 1.216-1.322 1.656-2.152 1.778-3.652 4.015-4.8 6.519-.128.277-.214.573-.319.859.308-.093.617-.184.924-.28.057-.02.107-.062.158-.097 2.45-1.635 4.427-3.761 6.194-6.083.393-.52.556-1.21.824-1.821l-.14-.065zM63.365 56.908c.975-.705 1.984-1.37 2.92-2.123.648-.521 1.8-.83 1.177-2.094-.024-.046.01-.121.024-.181.343-1.52.688-3.04 1.024-4.56.035-.162.022-.331.032-.498-.145.045-.331.047-.431.142-.703.664-1.532 1.13-1.84 2.24-.34 1.23-1.114 2.336-1.684 3.503a159.335 159.335 0 0 0-1.547 3.265c-.061.136-.028.315-.047.597.226-.178.297-.238.371-.291zm11.687-9.996l-5.419 5.286c1.569-.798 3.029-1.715 4.472-2.658.22-.142.431-.375.524-.614.235-.594.399-1.215.59-1.824l-.167-.19zm-6.347 4.964c.467-.402.935-.805 1.4-1.208l-.235-.241-1.36 1.279c.066.058.13.115.196.17zm5.624-10.717c.053.004.106.016.156.009.02-.002.051-.062.048-.065a1.231 1.231 0 0 0-.116-.088l-.088.144z"/></g><g><path fill="#fff" d="M142.184 42.682c.72.02 1.753-.197 1.336 1.184-.006.02.42.26.634.242 3.029-.242 6.055-.516 9.083-.774 1.035-.088 1.97-.049 2.805.831.385.404 1.259.531 1.89.486 3.62-.25 7.23-.687 10.853-.87 3.437-.175 6.887-.185 10.33-.139 4.808.065 9.615.226 14.421.382 8.39.275 16.721 1.088 24.91 2.986 2.068.48 4.061 1.311 6.063 2.05.5.184.91.625 1.338.977.086.07.066.27.095.41-.142.004-.309.06-.422.003-6.623-3.274-13.86-3.97-21.02-4.818-4.826-.573-9.715-.67-14.58-.843-5.389-.193-10.787-.383-16.174-.282-4.52.085-9.033.594-13.549.904-1.113.076-2.233.172-3.342.12-.513-.024-1.15-.258-1.483-.622-.559-.613-1.176-.758-1.914-.7-2.936.225-5.87.475-8.81.685-.799.057-1.61.036-2.41-.019-.58-.04-.782-.395-.4-.89.258-.335.312-.453-.194-.418-2.737.185-5.428.54-7.928 1.798-1.003.505-1.716 1.198-2.02 2.29a1.65 1.65 0 0 1-.24.498c-.438.622-.949 1.136-1.779.693-.58-.308-.59-1.086.053-1.854.554-.66 1.225-1.222 1.837-1.833 1.071-1.065 2.144-2.127 3.2-3.208.571-.585.967-1.42 2.015-1.258.08.013.208-.21.297-.336.192-.267.34-.582.582-.789.07-.059.398.184.608.288-.196.315-.319.793-.6.918-1.583.703-2.537 2.008-3.608 3.568 2.785-1.022 5.381-1.73 8.122-1.66zm-11.044 4.332c-.088-.044-.24-.14-.252-.126-.242.305-.467.621-.685.943-.005.007.145.155.174.14.358-.177.708-.373 1.06-.564-.1-.13-.199-.263-.298-.393z"/></g><g><path fill="#fff" d="M120.06 46.507c-.416-.37-.871-.61-1.06-.984-.26-.513-.36-.588-.911-.27-1.2.693-2.45 1.333-3.747 1.812-1.636.603-2.344-.031-2.183-1.738.007-.07-.281-.253-.415-.238-.377.045-.746.164-1.117.254.295-.282.565-.6.89-.841a39.005 39.005 0 0 1 2.42-1.684c.23-.147.587-.096.886-.134-.106.257-.17.54-.323.764-.382.558-.86 1.059-1.19 1.644-.173.306-.116.74-.163 1.117.383.027.787.147 1.143.062 2.269-.545 4.062-1.881 5.672-3.504.284-.286.525-.627.845-.86.179-.131.48-.095.727-.134-.034.248.014.554-.115.73-.366.499-.871.903-1.19 1.424-.233.38-.257.887-.375 1.337.409.014.853.142 1.218.023 1.237-.398 2.44-.895 3.668-1.328.167-.058.39.04.587.068-.08.15-.121.387-.242.438-1.618.675-3.247 1.324-5.025 2.042z"/></g><g><path fill="#fff" d="M85.54 3.412c-.266-.572-.04-1.056.481-1.199a4.596 4.596 0 0 1 1.94-.11c.16.027.39.916.24 1.257-.392.89-.89 1.764-1.502 2.518a72.699 72.699 0 0 1-4.018 4.591c-.412.43-1.117.631-1.725.813-.593.178-1.04-.426-.884-1.148.111-.513.285-1.012.431-1.517l-.01.01c.824.038.754.65.635 1.147-.19.8.187.7.651.475.303-.147.637-.315.844-.566 1.59-1.96 3.154-3.944 4.723-5.92a.7.7 0 0 0 .117-.252c.148-.592-.064-.869-.668-.668-.437.143-.847.37-1.268.558z"/></g><g><path fill="#fff" d="M118.262 59.395c-4.139.154-8.279.298-12.417.478-.579.026-1.147.256-1.729.332-.21.026-.445-.126-.669-.196.134-.24.227-.644.41-.688.81-.2 1.645-.414 2.47-.408 3.87.023 7.74.118 11.608.192.15.002.311.04.446.105.131.062.235.183.351.277-.146.08-.292.157-.437.235-.012-.109-.022-.22-.033-.328z"/></g><g><path fill="#fff" d="M129.39 41.661c-.244.322-.437.707-.743.952-.446.36-.994.591-1.456.934-.164.123-.2.415-.295.63.219.08.456.26.653.223.722-.137 1.425-.377 2.148-.51.308-.057.647.05.972.083-.25.181-.475.428-.754.53-.782.284-1.573.601-2.388.72-.44.063-1.125-.118-1.351-.436-.228-.323-.19-1.04.024-1.424.408-.735 1.007-1.37 1.564-2.015.11-.127.384-.115.7-.199l.927.512zm-1.372.53l.04.058.033-.064z"/></g><g><path fill="#fff" d="M101.828-3.907l-.048.06c-.03-.032-.064-.06-.089-.094-.003-.005.03-.037.046-.057l.091.09z"/></g><g><path fill="#fff" d="M-5.268 129.673l.05.043-.06.022z"/></g><g><path fill="#fff" d="M104.707 44.648v.06l-.058-.03z"/></g><g><path fill="#fff" d="M32.616 109.615c-.044-.04-.091-.077-.13-.12-.01-.014.005-.049.008-.073l.113.202z"/></g><g><path fill="#fff" d="M79.058 48.286c-.02.041-.027.08-.046.087-.017.007-.05-.018-.074-.03l.12-.057z"/></g></g></g></svg>