<svg xmlns="http://www.w3.org/2000/svg" width="42.158" height="42.156" viewBox="0 0 42.158 42.156"><g transform="translate(-1721.013 -5018.999)"><path d="M1721.013,5047.806v-15.457c.1-.973.178-1.948.289-2.918a11.066,11.066,0,0,1,9.387-10.01c1.211-.215,2.449-.285,3.673-.422h15.459c.926.092,1.853.172,2.778.279a11.229,11.229,0,0,1,10.282,10.567c.118,1.394.194,2.793.29,4.189v11.944c-.095,1.416-.168,2.832-.288,4.244a11.265,11.265,0,0,1-10.639,10.644c-1.415.119-2.833.194-4.251.289H1736.05c-1.4-.095-2.791-.174-4.184-.291a11.126,11.126,0,0,1-10.43-9.449C1721.222,5050.226,1721.151,5049.009,1721.013,5047.806Zm38.34-7.76c-.028,0-.053,0-.08,0,0-1.357.037-2.717-.008-4.072-.073-2.151-.067-4.315-.332-6.444a6.627,6.627,0,0,0-4.51-5.839,14.8,14.8,0,0,0-4.255-.737c-3.719-.131-7.442-.142-11.165-.129-2.291.01-4.588.076-6.872.256a7.112,7.112,0,0,0-6.9,6.326,41.829,41.829,0,0,0-.38,6.365c.009,4.68.005,9.366.251,14.036a7.206,7.206,0,0,0,7.456,7.244c6.337.15,12.681.1,19.022.006a7.265,7.265,0,0,0,5.96-2.948,8.2,8.2,0,0,0,1.553-4.658C1759.228,5046.317,1759.271,5043.181,1759.353,5040.046Z"/><path d="M1731.25,5039.991a10.825,10.825,0,1,1,10.723,10.893A10.774,10.774,0,0,1,1731.25,5039.991Zm17.8-.174a7,7,0,1,0-6.774,7.219A7.007,7.007,0,0,0,1749.052,5039.817Z" fill-rule="evenodd"/><path d="M1753.32,5026.284a2.535,2.535,0,1,1-2.561,2.512A2.522,2.522,0,0,1,1753.32,5026.284Z" fill-rule="evenodd"/></g></svg>