<svg xmlns="http://www.w3.org/2000/svg" width="221" height="25" viewBox="0 0 221 25"><g><g><g><path fill="#231f20" d="M8.904 5.356c-.116.26-.435.55-1.102.55H6.177c-.29 0-.493.233-.522.494v17.752h-1.48c-.492 0-.58-.29-.58-.436V5.907H.666v-1.42c0-.348.29-.638.639-.638H9.6z"/></g><g><path fill="#231f20" d="M24.998 24.152h-2.292L20.88 10.17l-1.827 13.98h-2.291l3.075-20.304h1.13c.87 0 1.015.55 1.102 1.102z"/></g><g><path fill="#231f20" d="M41.093 5.356c-.116.26-.435.55-1.102.55h-1.625c-.29 0-.493.233-.522.494v17.752h-1.479c-.493 0-.58-.29-.58-.436V5.907h-2.93v-1.42c0-.348.29-.638.638-.638h8.296z"/></g><g><path fill="#231f20" d="M54.52 3.847c.637 0 .84.464.84.812v17.114a2.545 2.545 0 0 1-2.493 2.553v.03h-1.305c-1.422 0-2.524-1.16-2.524-2.583v-.406c0-.667.29-.986.58-1.102.144-.087.927-.436 1.45-.668v1.828a1.102 1.102 0 0 0 2.205 0V3.847z"/></g><g><path fill="#231f20" d="M73.138 24.152h-2.292L69.019 10.17l-1.827 13.98H64.9l3.075-20.304h1.13c.87 0 1.016.55 1.103 1.102z"/></g><g><path fill="#231f20" d="M89.175 24.152h-.958c-1.131 0-1.305-.9-1.392-1.305L84.592 12.81v11.342h-2.09V3.847h.959c1.16 0 1.363.55 1.479 1.13l2.146 10.56V3.847h2.089z"/></g><g><path fill="#231f20" d="M106.777 24.152h-2.292l-1.827-13.981-1.827 13.98H98.54l3.075-20.304h1.131c.87 0 1.015.55 1.102 1.102z"/></g><g><path fill="#231f20" d="M137.69 24.152h-1.044c-1.044 0-1.218-1.247-1.248-1.421l-2.9-18.884h1.595c.145 0 .493.116.61.784l1.943 12.733 2.06-13.517h2.088z"/></g><g><path fill="#231f20" d="M152.567 3.847c.609 0 .84.464.84.812v19.493h-1.478c-.493 0-.58-.29-.61-.435V3.847z"/></g><g><path fill="#231f20" d="M172.52 22.092c-.232.522-.58 1.334-.667 1.508-.145.262-.464.552-1.13.552h-4.99V3.847h1.45c.348.03.638.29.638.638v17.607z"/></g><g><path fill="#231f20" d="M183.017 3.847c.609 0 .84.464.84.812v19.493h-1.478c-.493 0-.58-.29-.61-.435V3.847z"/></g><g><path fill="#231f20" d="M203.608 24.152h-2.06V13.68l-1.566 6.962h-.638c-1.218 0-1.45-1.218-1.567-1.653l-1.218-5.31v10.473H194.5V3.847h1.276c.812 0 .928.754.928.754l2.408 11.66 2.291-11.69c.03-.086.174-.724.93-.724h1.275z"/></g><g><path fill="#231f20" d="M220.834 22.092c-.232.522-.58 1.334-.667 1.508-.145.262-.464.552-1.131.552h-4.641V4.427a.634.634 0 0 1 .638-.58h5.424l-.696 1.508c-.116.261-.435.58-1.102.58h-1.683a.472.472 0 0 0-.493.493v6.034h3.133c-.232.522-.58 1.363-.667 1.537-.145.261-.435.551-1.103.551h-.87a.508.508 0 0 0-.493.493v7.05z"/></g><g><path fill="#231f20" d="M218.755 1.59a.945.945 0 1 1-1.89 0 .945.945 0 0 1 1.89 0z"/></g></g></g></svg>